<svg xmlns="http://www.w3.org/2000/svg" width="800" height="800" viewBox="0 0 800 800" fill="none">
  <rect width="800" height="800" rx="48" fill="#FFF8F0"/>
  <rect x="54" y="54" width="692" height="692" rx="36" fill="#FFFFFF" stroke="#F5E6D3" stroke-width="12"/>
  <rect x="116" y="116" width="568" height="568" rx="24" fill="#FFF8F0" stroke="#FF6B00" stroke-width="10" stroke-dasharray="16 16"/>
  <rect x="156" y="156" width="112" height="112" rx="12" fill="#3D1C00"/>
  <rect x="186" y="186" width="52" height="52" rx="6" fill="#FFF8F0"/>
  <rect x="532" y="156" width="112" height="112" rx="12" fill="#3D1C00"/>
  <rect x="562" y="186" width="52" height="52" rx="6" fill="#FFF8F0"/>
  <rect x="156" y="532" width="112" height="112" rx="12" fill="#3D1C00"/>
  <rect x="186" y="562" width="52" height="52" rx="6" fill="#FFF8F0"/>
  <path d="M334 172H374V212H334V172Z" fill="#FF6B00"/>
  <path d="M414 172H454V252H414V172Z" fill="#3D1C00"/>
  <path d="M494 292H534V332H494V292Z" fill="#FF6B00"/>
  <path d="M374 292H454V332H374V292Z" fill="#3D1C00"/>
  <path d="M294 292H334V412H294V292Z" fill="#3D1C00"/>
  <path d="M374 372H414V412H374V372Z" fill="#FF6B00"/>
  <path d="M454 372H574V412H454V372Z" fill="#3D1C00"/>
  <path d="M334 452H374V492H334V452Z" fill="#3D1C00"/>
  <path d="M414 452H494V492H414V452Z" fill="#FF6B00"/>
  <path d="M534 452H574V572H534V452Z" fill="#3D1C00"/>
  <path d="M334 532H454V572H334V532Z" fill="#3D1C00"/>
  <path d="M414 612H534V652H414V612Z" fill="#FF6B00"/>
  <text x="400" y="710" text-anchor="middle" fill="#3D1C00" font-family="Arial, sans-serif" font-size="38" font-weight="700">Replace with your real donation QR</text>
  <text x="400" y="752" text-anchor="middle" fill="#E55A00" font-family="Arial, sans-serif" font-size="24">Set NEXT_PUBLIC_DONATION_QR_IMAGE_URL or add /public/donation-qr.png</text>
</svg>
